<?xml version="1.0" standalone="no"?>
<!DOCTYPE svg PUBLIC "-//W3C//DTD SVG 20010904//EN"
 "http://www.w3.org/TR/2001/REC-SVG-20010904/DTD/svg10.dtd">
<svg version="1.0" xmlns="http://www.w3.org/2000/svg"
 width="846.000000pt" height="846.000000pt" viewBox="0 0 846.000000 846.000000"
 preserveAspectRatio="xMidYMid meet">
<metadata>
Created by potrace 1.11, written by Peter Selinger 2001-2013
</metadata>
<g transform="translate(0.000000,846.000000) scale(0.100000,-0.100000)"
fill="#000000" stroke="none">
<path d="M4219 8448 c-1 -18 7 15 -134 -593 -70 -302 -128 -557 -130 -565 -2
-8 -42 -181 -90 -385 -47 -203 -88 -379 -90 -390 -47 -219 -212 -914 -216
-913 -7 3 -140 122 -194 173 -17 17 -73 68 -125 115 -52 47 -108 99 -125 115
-18 17 -72 66 -120 110 -49 44 -118 107 -154 141 -72 66 -162 148 -200 182
-14 12 -28 22 -32 22 -9 0 -9 1 66 -235 32 -99 72 -227 90 -285 18 -58 54
-170 80 -250 46 -143 141 -442 175 -551 l17 -56 -386 -128 c-212 -70 -395
-131 -406 -136 -11 -4 -242 -81 -512 -171 -271 -90 -493 -165 -493 -168 0 -6
175 -76 215 -86 14 -3 25 -11 25 -17 0 -6 3 -8 6 -4 3 3 29 -3 58 -15 28 -11
56 -21 61 -23 6 -1 17 -5 25 -8 8 -4 42 -16 75 -28 33 -12 71 -26 85 -32 14
-6 30 -11 35 -13 6 -1 39 -14 74 -28 36 -14 71 -26 78 -26 7 0 13 -4 13 -10 0
-5 3 -9 8 -8 8 2 46 -9 77 -22 11 -5 56 -22 100 -38 44 -16 89 -33 100 -37 11
-5 23 -9 28 -10 4 -2 9 -4 12 -5 3 -1 8 -3 13 -5 4 -1 20 -7 35 -13 15 -7 39
-15 52 -18 14 -3 25 -9 25 -13 0 -4 12 -8 27 -9 15 -1 29 -5 32 -10 3 -4 11
-8 16 -9 6 -1 42 -14 80 -28 113 -42 149 -55 160 -58 6 -1 12 -5 15 -9 3 -4
15 -9 25 -11 11 -1 25 -5 30 -8 6 -4 28 -12 50 -19 22 -7 56 -20 75 -28 39
-18 44 -19 65 -21 8 0 15 -7 15 -15 0 -8 -25 -102 -55 -208 -30 -106 -89 -314
-130 -463 -42 -148 -114 -404 -161 -567 -46 -164 -84 -300 -84 -303 0 -18 31
7 122 101 57 59 126 129 153 158 28 28 55 49 60 48 6 -2 7 0 3 3 -4 4 30 45
75 92 76 79 196 202 438 451 55 56 103 102 107 102 4 0 34 -129 66 -287 121
-593 157 -770 197 -961 16 -78 32 -154 34 -170 3 -15 9 -47 14 -72 18 -86 132
-636 191 -925 32 -159 77 -377 99 -484 23 -107 39 -197 36 -199 -3 -3 -1 -10
5 -17 5 -6 11 -28 13 -50 2 -21 9 -41 16 -43 6 -2 11 1 11 6 0 5 14 74 31 153
17 79 33 158 36 174 10 60 124 611 130 630 3 11 7 31 9 45 1 14 36 189 78 390
41 201 106 518 145 705 38 187 75 360 81 385 6 25 12 56 14 70 3 26 125 626
131 647 5 16 281 -265 277 -281 -2 -6 -1 -8 3 -4 4 4 33 -19 64 -51 31 -32
166 -172 301 -311 318 -328 300 -310 311 -310 6 0 8 8 5 18 -22 79 -87 314
-89 329 -2 10 -9 31 -15 46 -7 16 -12 31 -12 35 0 7 -56 206 -212 756 -54 192
-97 354 -95 360 4 11 222 96 245 96 7 0 12 5 12 12 0 6 3 8 7 5 3 -4 12 -2 20
4 7 6 13 8 13 4 0 -4 6 -3 13 2 6 6 37 18 67 28 30 10 69 23 85 30 17 7 75 30
130 50 55 20 109 41 120 46 12 6 27 11 35 12 8 2 21 6 28 10 6 5 12 5 12 0 0
-4 4 -3 8 2 4 6 39 21 77 34 39 13 75 27 80 31 6 3 30 13 55 20 25 7 50 17 55
20 6 4 28 13 50 20 22 7 45 15 50 19 6 3 17 6 25 8 8 1 23 6 35 11 69 33 96
42 105 37 6 -3 10 -1 10 4 0 6 4 11 9 11 5 0 22 5 38 12 15 6 34 12 41 14 8 1
21 6 30 10 9 4 19 8 22 9 3 1 19 7 35 14 33 14 184 71 200 75 35 10 75 29 75
35 0 4 -114 45 -252 91 -139 46 -262 88 -273 93 -11 6 -27 11 -35 12 -22 3
-934 307 -940 314 -3 3 -12 6 -20 7 -8 1 -73 20 -143 44 -126 42 -128 44 -122
69 6 25 71 232 160 511 24 74 71 223 105 330 74 234 125 395 150 473 14 42 15
55 6 50 -11 -7 -131 -115 -230 -208 -12 -11 -71 -65 -131 -120 -60 -55 -119
-109 -131 -120 -36 -33 -276 -253 -339 -310 -16 -15 -51 -47 -77 -72 -32 -30
-49 -40 -53 -31 -4 13 -164 706 -190 823 -7 33 -50 218 -94 410 -45 193 -83
357 -85 365 -1 8 -6 26 -9 40 -4 14 -61 261 -127 550 -155 674 -151 660 -161
660 -5 0 -9 -6 -10 -12z"/>
</g>
</svg>
